<mxfile host="app.diagrams.net" modified="2021-12-25T19:43:49.290Z" agent="5.0 (Windows)" etag="OzzHYbxvYRZvfitLcR7H" version="16.1.0" type="github">
  <diagram id="hZgRkW4Kh9cMTMM9FMmJ" name="Page-1">
    <mxGraphModel dx="1102" dy="600" grid="0" gridSize="10" guides="1" tooltips="1" connect="1" arrows="1" fold="1" page="1" pageScale="1" pageWidth="850" pageHeight="1100" math="0" shadow="0">
      <root>
        <mxCell id="0" />
        <mxCell id="1" parent="0" />
        <mxCell id="yb3H-mhaVjrvabLYlUrJ-5" value="" style="group" vertex="1" connectable="0" parent="1">
          <mxGeometry x="385" y="180" width="80" height="100" as="geometry" />
        </mxCell>
        <mxCell id="yb3H-mhaVjrvabLYlUrJ-3" value="" style="image;html=1;image=img/lib/clip_art/people/Suit_Woman_Green_128x128.png" vertex="1" parent="yb3H-mhaVjrvabLYlUrJ-5">
          <mxGeometry width="80" height="80" as="geometry" />
        </mxCell>
        <mxCell id="yb3H-mhaVjrvabLYlUrJ-4" value="Manager" style="text;html=1;align=center;verticalAlign=middle;resizable=0;points=[];autosize=1;strokeColor=none;fillColor=none;" vertex="1" parent="yb3H-mhaVjrvabLYlUrJ-5">
          <mxGeometry x="10" y="80" width="60" height="20" as="geometry" />
        </mxCell>
        <mxCell id="yb3H-mhaVjrvabLYlUrJ-6" value="" style="group" vertex="1" connectable="0" parent="1">
          <mxGeometry x="385" y="20" width="80" height="100" as="geometry" />
        </mxCell>
        <mxCell id="yb3H-mhaVjrvabLYlUrJ-1" value="" style="image;html=1;image=img/lib/clip_art/people/Suit_Man_Black_128x128.png" vertex="1" parent="yb3H-mhaVjrvabLYlUrJ-6">
          <mxGeometry width="80" height="80" as="geometry" />
        </mxCell>
        <mxCell id="yb3H-mhaVjrvabLYlUrJ-2" value="Director" style="text;html=1;align=center;verticalAlign=middle;resizable=0;points=[];autosize=1;strokeColor=none;fillColor=none;" vertex="1" parent="yb3H-mhaVjrvabLYlUrJ-6">
          <mxGeometry x="10" y="80" width="60" height="20" as="geometry" />
        </mxCell>
        <mxCell id="yb3H-mhaVjrvabLYlUrJ-30" style="edgeStyle=orthogonalEdgeStyle;rounded=0;orthogonalLoop=1;jettySize=auto;html=1;" edge="1" parent="1" source="yb3H-mhaVjrvabLYlUrJ-7" target="yb3H-mhaVjrvabLYlUrJ-13">
          <mxGeometry relative="1" as="geometry" />
        </mxCell>
        <mxCell id="yb3H-mhaVjrvabLYlUrJ-31" style="edgeStyle=orthogonalEdgeStyle;rounded=0;orthogonalLoop=1;jettySize=auto;html=1;" edge="1" parent="1" source="yb3H-mhaVjrvabLYlUrJ-7">
          <mxGeometry relative="1" as="geometry">
            <mxPoint x="210" y="410" as="targetPoint" />
          </mxGeometry>
        </mxCell>
        <mxCell id="yb3H-mhaVjrvabLYlUrJ-7" value="Scientific Committee" style="rounded=1;whiteSpace=wrap;html=1;" vertex="1" parent="1">
          <mxGeometry x="100" y="310" width="120" height="60" as="geometry" />
        </mxCell>
        <mxCell id="yb3H-mhaVjrvabLYlUrJ-8" value="" style="shape=image;html=1;verticalAlign=top;verticalLabelPosition=bottom;labelBackgroundColor=#ffffff;imageAspect=0;aspect=fixed;image=https://cdn4.iconfinder.com/data/icons/success-filloutline/64/auction-Verdict-judge-law-gavel-128.png" vertex="1" parent="1">
          <mxGeometry x="360" y="170" width="128" height="128" as="geometry" />
        </mxCell>
        <mxCell id="yb3H-mhaVjrvabLYlUrJ-11" value="" style="shape=image;html=1;verticalAlign=top;verticalLabelPosition=bottom;labelBackgroundColor=#ffffff;imageAspect=0;aspect=fixed;image=https://cdn4.iconfinder.com/data/icons/success-filloutline/64/auction-Verdict-judge-law-gavel-128.png" vertex="1" parent="1">
          <mxGeometry x="361" y="360" width="128" height="128" as="geometry" />
        </mxCell>
        <mxCell id="yb3H-mhaVjrvabLYlUrJ-12" value="" style="shape=image;html=1;verticalAlign=top;verticalLabelPosition=bottom;labelBackgroundColor=#ffffff;imageAspect=0;aspect=fixed;image=https://cdn0.iconfinder.com/data/icons/web-development-and-studio/512/17_Law_Action_auction_court_gavel_hammer_judge_legal-128.png" vertex="1" parent="1">
          <mxGeometry x="280" y="440" width="128" height="128" as="geometry" />
        </mxCell>
        <mxCell id="yb3H-mhaVjrvabLYlUrJ-18" style="edgeStyle=orthogonalEdgeStyle;rounded=0;orthogonalLoop=1;jettySize=auto;html=1;" edge="1" parent="1" source="yb3H-mhaVjrvabLYlUrJ-1" target="yb3H-mhaVjrvabLYlUrJ-3">
          <mxGeometry relative="1" as="geometry" />
        </mxCell>
        <mxCell id="yb3H-mhaVjrvabLYlUrJ-20" style="edgeStyle=orthogonalEdgeStyle;rounded=0;orthogonalLoop=1;jettySize=auto;html=1;entryX=0.5;entryY=0;entryDx=0;entryDy=0;" edge="1" parent="1" source="yb3H-mhaVjrvabLYlUrJ-4" target="yb3H-mhaVjrvabLYlUrJ-7">
          <mxGeometry relative="1" as="geometry" />
        </mxCell>
        <mxCell id="yb3H-mhaVjrvabLYlUrJ-27" value="" style="group" vertex="1" connectable="0" parent="1">
          <mxGeometry x="40" y="408" width="87.03" height="110" as="geometry" />
        </mxCell>
        <mxCell id="yb3H-mhaVjrvabLYlUrJ-13" value="" style="shape=image;verticalLabelPosition=bottom;labelBackgroundColor=#ffffff;verticalAlign=top;aspect=fixed;imageAspect=0;image=https://www.pngkey.com/png/full/224-2240336_judge-vector-frames-illustrations-hd-images-photo-designs.png;" vertex="1" parent="yb3H-mhaVjrvabLYlUrJ-27">
          <mxGeometry width="87.03" height="80" as="geometry" />
        </mxCell>
        <mxCell id="yb3H-mhaVjrvabLYlUrJ-15" value="&lt;div&gt;Judge&lt;/div&gt;&lt;div&gt;&lt;br&gt;&lt;/div&gt;" style="text;html=1;align=center;verticalAlign=middle;resizable=0;points=[];autosize=1;strokeColor=none;fillColor=none;" vertex="1" parent="yb3H-mhaVjrvabLYlUrJ-27">
          <mxGeometry x="18.519999999999996" y="80" width="50" height="30" as="geometry" />
        </mxCell>
        <mxCell id="yb3H-mhaVjrvabLYlUrJ-29" value="" style="group" vertex="1" connectable="0" parent="1">
          <mxGeometry x="152.25" y="420" width="100" height="88" as="geometry" />
        </mxCell>
        <mxCell id="yb3H-mhaVjrvabLYlUrJ-26" value="" style="verticalLabelPosition=bottom;sketch=0;aspect=fixed;html=1;verticalAlign=top;strokeColor=none;align=center;outlineConnect=0;shape=mxgraph.citrix.users;" vertex="1" parent="yb3H-mhaVjrvabLYlUrJ-29">
          <mxGeometry x="17.75" width="64.5" height="55" as="geometry" />
        </mxCell>
        <mxCell id="yb3H-mhaVjrvabLYlUrJ-28" value="Problem Setter" style="text;html=1;align=center;verticalAlign=middle;resizable=0;points=[];autosize=1;strokeColor=none;fillColor=none;" vertex="1" parent="yb3H-mhaVjrvabLYlUrJ-29">
          <mxGeometry y="68" width="100" height="20" as="geometry" />
        </mxCell>
        <mxCell id="yb3H-mhaVjrvabLYlUrJ-33" style="edgeStyle=orthogonalEdgeStyle;rounded=0;orthogonalLoop=1;jettySize=auto;html=1;" edge="1" parent="1" source="yb3H-mhaVjrvabLYlUrJ-4" target="yb3H-mhaVjrvabLYlUrJ-22">
          <mxGeometry relative="1" as="geometry" />
        </mxCell>
        <mxCell id="yb3H-mhaVjrvabLYlUrJ-37" value="" style="group" vertex="1" connectable="0" parent="1">
          <mxGeometry x="478" y="310" width="120" height="80" as="geometry" />
        </mxCell>
        <mxCell id="yb3H-mhaVjrvabLYlUrJ-75" value="" style="group" vertex="1" connectable="0" parent="yb3H-mhaVjrvabLYlUrJ-37">
          <mxGeometry width="120" height="80" as="geometry" />
        </mxCell>
        <mxCell id="yb3H-mhaVjrvabLYlUrJ-34" value="" style="aspect=fixed;html=1;points=[];align=center;image;fontSize=12;image=img/lib/azure2/identity/Users.svg;" vertex="1" parent="yb3H-mhaVjrvabLYlUrJ-75">
          <mxGeometry x="29" width="54.86" height="60" as="geometry" />
        </mxCell>
        <mxCell id="yb3H-mhaVjrvabLYlUrJ-35" value="Community Leader" style="text;html=1;align=center;verticalAlign=middle;resizable=0;points=[];autosize=1;strokeColor=none;fillColor=none;" vertex="1" parent="yb3H-mhaVjrvabLYlUrJ-75">
          <mxGeometry y="60" width="120" height="20" as="geometry" />
        </mxCell>
        <mxCell id="yb3H-mhaVjrvabLYlUrJ-38" style="edgeStyle=orthogonalEdgeStyle;rounded=0;orthogonalLoop=1;jettySize=auto;html=1;" edge="1" parent="1" source="yb3H-mhaVjrvabLYlUrJ-4" target="yb3H-mhaVjrvabLYlUrJ-34">
          <mxGeometry relative="1" as="geometry" />
        </mxCell>
        <mxCell id="yb3H-mhaVjrvabLYlUrJ-41" value="" style="group" vertex="1" connectable="0" parent="1">
          <mxGeometry x="620.5" y="310" width="75" height="78" as="geometry" />
        </mxCell>
        <mxCell id="yb3H-mhaVjrvabLYlUrJ-74" value="" style="group" vertex="1" connectable="0" parent="yb3H-mhaVjrvabLYlUrJ-41">
          <mxGeometry width="75" height="78" as="geometry" />
        </mxCell>
        <mxCell id="yb3H-mhaVjrvabLYlUrJ-39" value="" style="aspect=fixed;perimeter=ellipsePerimeter;html=1;align=center;shadow=0;dashed=0;spacingTop=3;image;image=img/lib/active_directory/user_accounts.svg;" vertex="1" parent="yb3H-mhaVjrvabLYlUrJ-74">
          <mxGeometry x="8.5" width="58" height="56.26" as="geometry" />
        </mxCell>
        <mxCell id="yb3H-mhaVjrvabLYlUrJ-40" value="Coordinator" style="text;html=1;align=center;verticalAlign=middle;resizable=0;points=[];autosize=1;strokeColor=none;fillColor=none;" vertex="1" parent="yb3H-mhaVjrvabLYlUrJ-74">
          <mxGeometry y="60" width="75" height="18" as="geometry" />
        </mxCell>
        <mxCell id="yb3H-mhaVjrvabLYlUrJ-42" style="edgeStyle=orthogonalEdgeStyle;rounded=0;orthogonalLoop=1;jettySize=auto;html=1;entryX=0.5;entryY=0;entryDx=0;entryDy=0;" edge="1" parent="1" source="yb3H-mhaVjrvabLYlUrJ-4" target="yb3H-mhaVjrvabLYlUrJ-39">
          <mxGeometry relative="1" as="geometry" />
        </mxCell>
        <mxCell id="yb3H-mhaVjrvabLYlUrJ-51" value="" style="group" vertex="1" connectable="0" parent="1">
          <mxGeometry x="331" y="565" width="70" height="78" as="geometry" />
        </mxCell>
        <mxCell id="yb3H-mhaVjrvabLYlUrJ-44" value="&lt;div&gt;Contestant&lt;/div&gt;" style="text;html=1;align=center;verticalAlign=middle;resizable=0;points=[];autosize=1;strokeColor=none;fillColor=none;" vertex="1" parent="yb3H-mhaVjrvabLYlUrJ-51">
          <mxGeometry y="60" width="70" height="18" as="geometry" />
        </mxCell>
        <mxCell id="yb3H-mhaVjrvabLYlUrJ-50" value="" style="sketch=0;outlineConnect=0;fontColor=#232F3E;gradientColor=none;fillColor=#B0084D;strokeColor=none;dashed=0;verticalLabelPosition=bottom;verticalAlign=top;align=center;html=1;fontSize=12;fontStyle=0;aspect=fixed;pointerEvents=1;shape=mxgraph.aws4.organizations_management_account;" vertex="1" parent="yb3H-mhaVjrvabLYlUrJ-51">
          <mxGeometry x="4.639999999999986" width="60.72" height="64" as="geometry" />
        </mxCell>
        <mxCell id="yb3H-mhaVjrvabLYlUrJ-54" style="edgeStyle=orthogonalEdgeStyle;rounded=0;orthogonalLoop=1;jettySize=auto;html=1;" edge="1" parent="1" source="yb3H-mhaVjrvabLYlUrJ-35" target="yb3H-mhaVjrvabLYlUrJ-50">
          <mxGeometry relative="1" as="geometry">
            <Array as="points">
              <mxPoint x="538" y="474" />
              <mxPoint x="357" y="474" />
            </Array>
          </mxGeometry>
        </mxCell>
        <mxCell id="yb3H-mhaVjrvabLYlUrJ-62" style="edgeStyle=orthogonalEdgeStyle;rounded=0;orthogonalLoop=1;jettySize=auto;html=1;" edge="1" parent="1" source="yb3H-mhaVjrvabLYlUrJ-55">
          <mxGeometry relative="1" as="geometry">
            <mxPoint x="432" y="681" as="targetPoint" />
          </mxGeometry>
        </mxCell>
        <mxCell id="yb3H-mhaVjrvabLYlUrJ-63" style="edgeStyle=orthogonalEdgeStyle;rounded=0;orthogonalLoop=1;jettySize=auto;html=1;" edge="1" parent="1" source="yb3H-mhaVjrvabLYlUrJ-55">
          <mxGeometry relative="1" as="geometry">
            <mxPoint x="544" y="681" as="targetPoint" />
          </mxGeometry>
        </mxCell>
        <mxCell id="yb3H-mhaVjrvabLYlUrJ-55" value="&lt;div&gt;Local Scientific &lt;br&gt;&lt;/div&gt;&lt;div&gt;Committee&lt;/div&gt;" style="rounded=1;whiteSpace=wrap;html=1;" vertex="1" parent="1">
          <mxGeometry x="425" y="565" width="120" height="60" as="geometry" />
        </mxCell>
        <mxCell id="yb3H-mhaVjrvabLYlUrJ-56" value="" style="group;fillColor=#ffe6cc;strokeColor=#d79b00;" vertex="1" connectable="0" parent="1">
          <mxGeometry x="380.48" y="685" width="87.03" height="124" as="geometry" />
        </mxCell>
        <mxCell id="yb3H-mhaVjrvabLYlUrJ-67" value="" style="group" vertex="1" connectable="0" parent="yb3H-mhaVjrvabLYlUrJ-56">
          <mxGeometry width="87.03" height="124" as="geometry" />
        </mxCell>
        <mxCell id="yb3H-mhaVjrvabLYlUrJ-57" value="" style="shape=image;verticalLabelPosition=bottom;labelBackgroundColor=#ffffff;verticalAlign=top;aspect=fixed;imageAspect=0;image=https://www.pngkey.com/png/full/224-2240336_judge-vector-frames-illustrations-hd-images-photo-designs.png;" vertex="1" parent="yb3H-mhaVjrvabLYlUrJ-67">
          <mxGeometry width="87.03" height="80" as="geometry" />
        </mxCell>
        <mxCell id="yb3H-mhaVjrvabLYlUrJ-58" value="&lt;div&gt;Local&lt;/div&gt;&lt;div&gt;Judge&lt;/div&gt;&lt;div&gt;&lt;br&gt;&lt;/div&gt;" style="text;html=1;align=center;verticalAlign=middle;resizable=0;points=[];autosize=1;strokeColor=none;fillColor=none;" vertex="1" parent="yb3H-mhaVjrvabLYlUrJ-67">
          <mxGeometry x="21.519999999999996" y="78" width="44" height="46" as="geometry" />
        </mxCell>
        <mxCell id="yb3H-mhaVjrvabLYlUrJ-59" value="" style="group;fillColor=#ffe6cc;strokeColor=#d79b00;" vertex="1" connectable="0" parent="1">
          <mxGeometry x="498" y="683" width="100" height="94" as="geometry" />
        </mxCell>
        <mxCell id="yb3H-mhaVjrvabLYlUrJ-68" value="" style="group" vertex="1" connectable="0" parent="yb3H-mhaVjrvabLYlUrJ-59">
          <mxGeometry x="4" width="92" height="94" as="geometry" />
        </mxCell>
        <mxCell id="yb3H-mhaVjrvabLYlUrJ-60" value="" style="verticalLabelPosition=bottom;sketch=0;aspect=fixed;html=1;verticalAlign=top;strokeColor=none;align=center;outlineConnect=0;shape=mxgraph.citrix.users;fillColor=#0066CC;" vertex="1" parent="yb3H-mhaVjrvabLYlUrJ-68">
          <mxGeometry x="13.75" width="64.5" height="55" as="geometry" />
        </mxCell>
        <mxCell id="yb3H-mhaVjrvabLYlUrJ-61" value="Local&lt;br&gt;&lt;div&gt;Problem Setter&lt;/div&gt;" style="text;html=1;align=center;verticalAlign=middle;resizable=0;points=[];autosize=1;strokeColor=none;fillColor=none;" vertex="1" parent="yb3H-mhaVjrvabLYlUrJ-68">
          <mxGeometry y="62" width="92" height="32" as="geometry" />
        </mxCell>
        <mxCell id="yb3H-mhaVjrvabLYlUrJ-64" style="edgeStyle=orthogonalEdgeStyle;rounded=0;orthogonalLoop=1;jettySize=auto;html=1;" edge="1" parent="1" source="yb3H-mhaVjrvabLYlUrJ-35">
          <mxGeometry relative="1" as="geometry">
            <mxPoint x="487" y="558" as="targetPoint" />
          </mxGeometry>
        </mxCell>
        <mxCell id="yb3H-mhaVjrvabLYlUrJ-66" value="" style="group" vertex="1" connectable="0" parent="1">
          <mxGeometry x="568" y="562" width="76" height="92" as="geometry" />
        </mxCell>
        <mxCell id="yb3H-mhaVjrvabLYlUrJ-46" value="&lt;div&gt;Local Media &lt;br&gt;&lt;/div&gt;&lt;div&gt;Team&lt;/div&gt;" style="text;html=1;align=center;verticalAlign=middle;resizable=0;points=[];autosize=1;strokeColor=none;fillColor=none;" vertex="1" parent="yb3H-mhaVjrvabLYlUrJ-66">
          <mxGeometry y="60" width="76" height="32" as="geometry" />
        </mxCell>
        <mxCell id="yb3H-mhaVjrvabLYlUrJ-65" value="" style="sketch=0;pointerEvents=1;shadow=0;dashed=0;html=1;strokeColor=none;fillColor=#007FFF;labelPosition=center;verticalLabelPosition=bottom;verticalAlign=top;outlineConnect=0;align=center;shape=mxgraph.office.users.call_center_agent;" vertex="1" parent="yb3H-mhaVjrvabLYlUrJ-66">
          <mxGeometry x="15" width="46" height="55" as="geometry" />
        </mxCell>
        <mxCell id="yb3H-mhaVjrvabLYlUrJ-70" value="" style="group;fillColor=#ffe6cc;strokeColor=#d79b00;" vertex="1" connectable="0" parent="1">
          <mxGeometry x="666" y="565" width="75" height="88.25999999999999" as="geometry" />
        </mxCell>
        <mxCell id="yb3H-mhaVjrvabLYlUrJ-73" value="" style="group" vertex="1" connectable="0" parent="yb3H-mhaVjrvabLYlUrJ-70">
          <mxGeometry width="75" height="88.25999999999999" as="geometry" />
        </mxCell>
        <mxCell id="yb3H-mhaVjrvabLYlUrJ-47" value="&lt;div&gt;Local &lt;br&gt;&lt;/div&gt;&lt;div&gt;Coordinator&lt;/div&gt;" style="text;html=1;align=center;verticalAlign=middle;resizable=0;points=[];autosize=1;strokeColor=none;fillColor=none;" vertex="1" parent="yb3H-mhaVjrvabLYlUrJ-73">
          <mxGeometry y="56.25999999999999" width="75" height="32" as="geometry" />
        </mxCell>
        <mxCell id="yb3H-mhaVjrvabLYlUrJ-69" value="" style="aspect=fixed;perimeter=ellipsePerimeter;html=1;align=center;shadow=0;dashed=0;spacingTop=3;image;image=img/lib/active_directory/user_accounts.svg;" vertex="1" parent="yb3H-mhaVjrvabLYlUrJ-73">
          <mxGeometry x="10.5" width="58" height="56.26" as="geometry" />
        </mxCell>
        <mxCell id="yb3H-mhaVjrvabLYlUrJ-71" style="edgeStyle=orthogonalEdgeStyle;rounded=0;orthogonalLoop=1;jettySize=auto;html=1;" edge="1" parent="1" source="yb3H-mhaVjrvabLYlUrJ-35" target="yb3H-mhaVjrvabLYlUrJ-65">
          <mxGeometry relative="1" as="geometry">
            <Array as="points">
              <mxPoint x="538" y="473" />
              <mxPoint x="606" y="473" />
            </Array>
          </mxGeometry>
        </mxCell>
        <mxCell id="yb3H-mhaVjrvabLYlUrJ-72" style="edgeStyle=orthogonalEdgeStyle;rounded=0;orthogonalLoop=1;jettySize=auto;html=1;entryX=0.5;entryY=0;entryDx=0;entryDy=0;" edge="1" parent="1" source="yb3H-mhaVjrvabLYlUrJ-35" target="yb3H-mhaVjrvabLYlUrJ-69">
          <mxGeometry relative="1" as="geometry">
            <Array as="points">
              <mxPoint x="538" y="474" />
              <mxPoint x="706" y="474" />
            </Array>
          </mxGeometry>
        </mxCell>
        <mxCell id="yb3H-mhaVjrvabLYlUrJ-76" value="" style="group" vertex="1" connectable="0" parent="1">
          <mxGeometry x="263" y="310" width="80" height="75" as="geometry" />
        </mxCell>
        <mxCell id="yb3H-mhaVjrvabLYlUrJ-22" value="" style="sketch=0;pointerEvents=1;shadow=0;dashed=0;html=1;strokeColor=none;fillColor=#505050;labelPosition=center;verticalLabelPosition=bottom;verticalAlign=top;outlineConnect=0;align=center;shape=mxgraph.office.users.call_center_agent;" vertex="1" parent="yb3H-mhaVjrvabLYlUrJ-76">
          <mxGeometry x="17" width="46" height="55" as="geometry" />
        </mxCell>
        <mxCell id="yb3H-mhaVjrvabLYlUrJ-25" value="Media Team" style="text;html=1;align=center;verticalAlign=middle;resizable=0;points=[];autosize=1;strokeColor=none;fillColor=none;" vertex="1" parent="yb3H-mhaVjrvabLYlUrJ-76">
          <mxGeometry y="55" width="80" height="20" as="geometry" />
        </mxCell>
        <mxCell id="yb3H-mhaVjrvabLYlUrJ-78" value="" style="group" vertex="1" connectable="0" parent="1">
          <mxGeometry x="254" y="565" width="62.620000000000005" height="81" as="geometry" />
        </mxCell>
        <mxCell id="yb3H-mhaVjrvabLYlUrJ-43" value="Coach" style="text;html=1;align=center;verticalAlign=middle;resizable=0;points=[];autosize=1;strokeColor=none;fillColor=none;" vertex="1" parent="yb3H-mhaVjrvabLYlUrJ-78">
          <mxGeometry y="63" width="46" height="18" as="geometry" />
        </mxCell>
        <mxCell id="yb3H-mhaVjrvabLYlUrJ-77" value="" style="sketch=0;outlineConnect=0;fontColor=#232F3E;gradientColor=none;fillColor=#007FFF;strokeColor=none;dashed=0;verticalLabelPosition=bottom;verticalAlign=top;align=center;html=1;fontSize=12;fontStyle=0;aspect=fixed;pointerEvents=1;shape=mxgraph.aws4.organizations_account;" vertex="1" parent="yb3H-mhaVjrvabLYlUrJ-78">
          <mxGeometry width="62.62" height="66" as="geometry" />
        </mxCell>
        <mxCell id="yb3H-mhaVjrvabLYlUrJ-79" style="edgeStyle=orthogonalEdgeStyle;rounded=0;orthogonalLoop=1;jettySize=auto;html=1;" edge="1" parent="1" source="yb3H-mhaVjrvabLYlUrJ-35" target="yb3H-mhaVjrvabLYlUrJ-77">
          <mxGeometry relative="1" as="geometry">
            <Array as="points">
              <mxPoint x="538" y="472" />
              <mxPoint x="284" y="472" />
            </Array>
          </mxGeometry>
        </mxCell>
      </root>
    </mxGraphModel>
  </diagram>
</mxfile>
